<mxfile host="www.draw.io" modified="2020-02-18T10:13:38.058Z" agent="Mozilla/5.0 (Windows NT 10.0; WOW64) AppleWebKit/537.36 (KHTML, like Gecko) Chrome/80.0.3987.106 Safari/537.36" etag="dWvKEYjae0oWK3abeZnw" version="12.7.1" type="github">
  <diagram id="C5RBs43oDa-KdzZeNtuy" name="Page-1">
    <mxGraphModel dx="782" dy="579" grid="1" gridSize="10" guides="1" tooltips="1" connect="1" arrows="1" fold="1" page="1" pageScale="1" pageWidth="827" pageHeight="1169" math="0" shadow="0">
      <root>
        <mxCell id="WIyWlLk6GJQsqaUBKTNV-0" />
        <mxCell id="WIyWlLk6GJQsqaUBKTNV-1" parent="WIyWlLk6GJQsqaUBKTNV-0" />
        <mxCell id="1cRwuKQpYJG1O-YmWHyO-0" value="信令服务器与Redis断网异常流" style="swimlane;html=1;childLayout=stackLayout;resizeParent=1;resizeParentMax=0;startSize=20;" vertex="1" parent="WIyWlLk6GJQsqaUBKTNV-1">
          <mxGeometry x="180" y="10" width="440" height="480" as="geometry">
            <mxRectangle x="180" y="70" width="60" height="20" as="alternateBounds" />
          </mxGeometry>
        </mxCell>
        <mxCell id="1cRwuKQpYJG1O-YmWHyO-1" value="服务器(断网)" style="swimlane;html=1;startSize=20;" vertex="1" parent="1cRwuKQpYJG1O-YmWHyO-0">
          <mxGeometry y="20" width="150" height="460" as="geometry">
            <mxRectangle y="20" width="30" height="460" as="alternateBounds" />
          </mxGeometry>
        </mxCell>
        <mxCell id="1cRwuKQpYJG1O-YmWHyO-2" value="Redis" style="swimlane;html=1;startSize=20;" vertex="1" parent="1cRwuKQpYJG1O-YmWHyO-0">
          <mxGeometry x="150" y="20" width="150" height="460" as="geometry" />
        </mxCell>
        <mxCell id="1cRwuKQpYJG1O-YmWHyO-3" value="服务器（连接）" style="swimlane;html=1;startSize=20;" vertex="1" parent="1cRwuKQpYJG1O-YmWHyO-0">
          <mxGeometry x="300" y="20" width="140" height="460" as="geometry" />
        </mxCell>
      </root>
    </mxGraphModel>
  </diagram>
</mxfile>
